<svg version="1.2" xmlns="http://www.w3.org/2000/svg" viewBox="0 0 1600 400" width="1600" height="400">
	<title>fontmaze-logo-monocolor</title>
	<style>
		.s0 { fill: #ffffff } 
	</style>
	<path id="fontmaze" class="s0" aria-label="fontmaze"  d="m33 143.7v10.2h-29.1v60.9h29.1v100.2h79.8v-100.2h33.3v-60.9h-37.8v-4.8c0-9.9 4.5-14.4 14.4-14.4h24.9v-54.3h-50.4c-42.9 0-64.2 21.3-64.2 63.3zm218.7 175.5c59.1 0 98.4-33 98.4-84.6 0-51.6-39.3-84.9-98.4-84.9-59.1 0-98.4 33.3-98.4 84.9 0 51.6 39.3 84.6 98.4 84.6zm-21-84.6c0-12.9 8.4-21.6 21-21.6 12.6 0 21.3 8.7 21.3 21.6 0 12.9-8.7 21.3-21.3 21.3-12.6 0-21-8.4-21-21.3zm138 80.4h79.8v-85.2c0-11.4 4.8-17.4 13.5-17.4 8.7 0 13.2 6 13.2 16.8v85.8h79.8v-96.9c0-42.6-25.5-68.4-67.5-68.4-22.8 0-41.1 7.5-54.9 22.2l-7.2-18h-56.7zm301.8 0h39.3v-63.3h-14.4c-15 0-21-6-21-20.1v-17.7h34.2v-60h-34.2v-42.3h-62.1l-3.3 19.8c-3.3 18-8.4 22.5-28.5 22.5h-13.8v60.9h27.9v33.6c0 44.7 24.6 66.6 75.9 66.6zm61.8 0h79.8v-85.8c0-10.8 4.8-16.8 13.2-16.8 8.4 0 13.2 6 13.2 16.8v85.8h75.6v-85.8c0-10.8 4.8-16.8 13.2-16.8 8.4 0 13.2 6 13.2 16.8v85.8h79.8v-98.4c0-40.8-26.4-66.9-65.7-66.9-22.8 0-40.8 7.8-54.3 22.8-11.1-15-29.1-22.8-51-22.8-21.9 0-39.9 7.8-53.1 22.2l-7.2-18h-56.7zm367.2 3.9c23.7 0 42.9-7.2 56.7-21.9l6.9 18h57v-88.2c0-50.7-30.3-77.1-88.2-77.1-50.7 0-79.8 20.7-85.5 60.9h72.6c0.3-6.9 5.1-11.1 12-11.1 7.2 0 12 4.5 12 11.4v9.6h-49.2c-33.9 0-55.2 19.2-55.2 48.9 0 30.9 22.5 49.5 60.9 49.5zm13.2-57c0-6.6 5.4-10.5 13.8-10.5h17.7v3.9c0 10.8-6.9 17.1-17.7 17.1-8.4 0-13.8-3.9-13.8-10.5zm125.7 53.1h151.8v-57.3h-34.5l-20.4 1.2-0.6-2.4 53.7-54.9v-47.7h-148.2v57.6h32.4l18.9-1.5 0.9 2.1-54 54.9zm256.8 4.2c48 0 82.8-21.3 94.8-58.8h-73.2c-3.9 4.8-10.5 7.2-18.3 7.2-11.4 0-19.8-5.4-22.5-18.3h116.1c3.6-60.6-33.3-99.6-95.4-99.6-57 0-96.3 34.5-96.3 84.9 0 50.4 38.4 84.6 94.8 84.6zm-18.9-100.8c2.7-12 10.8-17.1 21.6-17.1 11.4 0 18.3 6 20.7 17.1z"/>
</svg>