<?xml version="1.0" encoding="UTF-8"?>
<svg version="1.1" xmlns="http://www.w3.org/2000/svg" width="512" height="512">
<path d="M0 0 C4.56987683 0.01140204 9.13952076 0.00460801 13.70938969 -0.00688553 C77.69077999 -0.14310373 153.3010797 1.55255573 204.4206543 45.26074219 C205.36811523 46.02644531 205.36811523 46.02644531 206.3347168 46.80761719 C244.23105809 77.85924485 254.45594897 133.96371217 259.0887146 179.79507446 C261.35640928 203.4712913 261.7412397 227.07295593 261.68139648 250.84008789 C261.66999444 255.40996472 261.67678848 259.97960865 261.68828201 264.54947758 C261.82450022 328.53086788 260.12884075 404.14116759 216.4206543 455.26074219 C215.91018555 455.89238281 215.3997168 456.52402344 214.8737793 457.17480469 C183.82215163 495.07114598 127.71768431 505.29603687 81.88632202 509.92880249 C58.21010518 512.19649717 34.60844056 512.58132759 10.84130859 512.52148438 C6.27143177 512.51008233 1.70178783 512.51687637 -2.86808109 512.5283699 C-66.84947139 512.66458811 -142.45977111 510.96892864 -193.5793457 467.26074219 C-194.21098633 466.75027344 -194.84262695 466.23980469 -195.4934082 465.71386719 C-233.38974949 434.66223952 -243.61464038 378.55777221 -248.24740601 332.72640991 C-250.51510068 309.05019307 -250.89993111 285.44852845 -250.84008789 261.68139648 C-250.82868585 257.11151966 -250.83547989 252.54187572 -250.84697342 247.9720068 C-250.98319162 183.9906165 -249.28753216 108.38031678 -205.5793457 57.26074219 C-205.06887695 56.62910156 -204.5584082 55.99746094 -204.0324707 55.34667969 C-172.98084304 17.4503384 -116.87637572 7.22544751 -71.04501343 2.59268188 C-47.36879659 0.32498721 -23.76713196 -0.05984321 0 0 Z " fill="#EA7602" transform="translate(250.579345703125,-0.2607421875)"/>
<path d="M0 0 C18.48 0 36.96 0 56 0 C56 88.11 56 176.22 56 267 C-11.98 267 -79.96 267 -150 267 C-146.02118377 261.6949117 -142.01566764 256.49265362 -137.8125 251.375 C-134.15304233 246.89780973 -130.50546372 242.41529723 -126.95965385 237.8472681 C-126.07981687 236.72333678 -125.19174961 235.60575341 -124.29219246 234.49754238 C-121.72743993 231.32135446 -119.4145895 228.11756799 -117.25753784 224.6499176 C-113.62236217 219.13517132 -109.84041829 213.41133424 -103.42389679 211.05329514 C-96.15226509 209.62101922 -88.80957386 210.04632808 -81.4453125 210.33984375 C-79.08886444 210.37160682 -76.73230303 210.39577929 -74.3757019 210.41273499 C-68.21427776 210.47722052 -62.0598199 210.64378494 -55.90112305 210.83270264 C-48.49008677 211.03837842 -41.07670167 211.11544763 -33.66362 211.21440887 C-22.43758943 211.37850877 -11.22679725 211.70435456 0 212 C0 195.17 0 178.34 0 161 C-31.68 161 -63.36 161 -96 161 C-91.50071327 154.2510699 -91.50071327 154.2510699 -89.265625 151.484375 C-88.53496826 150.57594849 -88.53496826 150.57594849 -87.78955078 149.64916992 C-87.28149902 149.02244385 -86.77344727 148.39571777 -86.25 147.75 C-85.71487793 147.08524658 -85.17975586 146.42049316 -84.62841797 145.7355957 C-83.08777312 143.82197462 -81.54433015 141.91064737 -80 140 C-74.25020936 132.87242934 -68.61109559 125.66368048 -63.01025391 118.41870117 C-62.43581543 117.67724854 -61.86137695 116.9357959 -61.26953125 116.171875 C-60.76010986 115.5128418 -60.25068848 114.85380859 -59.72583008 114.17480469 C-57.53235879 111.41070195 -55.25900568 108.71080681 -53 106 C-35.51 106 -18.02 106 0 106 C0 71.02 0 36.04 0 0 Z " fill="#FEFEFE" transform="translate(360,119)"/>
<path d="M0 0 C67.65 0 135.3 0 205 0 C202.9038034 3.493661 201.03361861 6.34025861 198.5 9.4375 C195.23006162 13.46982838 192.00788394 17.53373552 188.8125 21.625 C184.19759425 27.51943044 179.5013679 33.34437977 174.7668457 39.14306641 C174.26241943 39.76101074 173.75799316 40.37895508 173.23828125 41.015625 C172.72821533 41.60466614 172.21814941 42.19370728 171.69262695 42.80059814 C169.91381099 44.9558641 169.91381099 44.9558641 168.77641296 47.54226685 C166.85664208 50.97238622 165.26771101 52.76238711 162 55 C154.27108593 56.92300191 145.92268937 56.15901202 138.03125 55.9765625 C135.66616815 55.95789868 133.3010475 55.94367 130.93591309 55.9336853 C124.7272159 55.89560227 118.52087856 55.79745929 112.31311035 55.68664551 C104.85619882 55.56609167 97.39849569 55.52039995 89.94088745 55.46211243 C78.62561982 55.36531515 67.3155241 55.17366937 56 55 C56 71.83 56 88.66 56 106 C87.35 106 118.7 106 151 106 C149.12626469 109.74747062 147.12802305 112.58292082 144.5625 115.875 C143.89988159 116.7271106 143.89988159 116.7271106 143.22387695 117.59643555 C141.81929163 119.40028383 140.4096886 121.20013843 139 123 C138.11698986 124.13396071 137.23417419 125.26807288 136.3515625 126.40234375 C130.85426216 133.44860716 125.26242822 140.41294476 119.59057617 147.31958008 C115.92481004 151.79957538 112.48096954 156.35870729 109 161 C91.51 161 74.02 161 56 161 C56 195.98 56 230.96 56 267 C37.52 267 19.04 267 0 267 C0 178.89 0 90.78 0 0 Z " fill="#FEFEFE" transform="translate(96,119)"/>
</svg>
