<?xml version="1.0" encoding="UTF-8"?>
<svg xmlns="http://www.w3.org/2000/svg" xmlns:xlink="http://www.w3.org/1999/xlink" width="160px" height="40px" viewBox="0 0 160 40" version="1.1">
<g id="surface1">
<path style=" stroke:none;fill-rule:nonzero;fill:rgb(100%,100%,100%);fill-opacity:1;" d="M 3.300781 14.371094 L 3.300781 15.390625 L 0.390625 15.390625 L 0.390625 21.480469 L 3.300781 21.480469 L 3.300781 31.5 L 11.28125 31.5 L 11.28125 21.480469 L 14.609375 21.480469 L 14.609375 15.390625 L 10.828125 15.390625 L 10.828125 14.910156 C 10.828125 13.921875 11.28125 13.46875 12.269531 13.46875 L 14.761719 13.46875 L 14.761719 8.039062 L 9.71875 8.039062 C 5.429688 8.039062 3.300781 10.171875 3.300781 14.371094 Z M 25.171875 31.921875 C 31.078125 31.921875 35.011719 28.621094 35.011719 23.460938 C 35.011719 18.300781 31.078125 14.96875 25.171875 14.96875 C 19.261719 14.96875 15.328125 18.300781 15.328125 23.460938 C 15.328125 28.621094 19.261719 31.921875 25.171875 31.921875 Z M 23.070312 23.460938 C 23.070312 22.171875 23.910156 21.300781 25.171875 21.300781 C 26.429688 21.300781 27.300781 22.171875 27.300781 23.460938 C 27.300781 24.75 26.429688 25.589844 25.171875 25.589844 C 23.910156 25.589844 23.070312 24.75 23.070312 23.460938 Z M 36.871094 31.5 L 44.851562 31.5 L 44.851562 22.980469 C 44.851562 21.839844 45.328125 21.238281 46.199219 21.238281 C 47.070312 21.238281 47.519531 21.839844 47.519531 22.921875 L 47.519531 31.5 L 55.5 31.5 L 55.5 21.808594 C 55.5 17.550781 52.949219 14.96875 48.75 14.96875 C 46.46875 14.96875 44.640625 15.71875 43.261719 17.191406 L 42.539062 15.390625 L 36.871094 15.390625 Z M 67.050781 31.5 L 70.980469 31.5 L 70.980469 25.171875 L 69.539062 25.171875 C 68.039062 25.171875 67.441406 24.570312 67.441406 23.160156 L 67.441406 21.390625 L 70.859375 21.390625 L 70.859375 15.390625 L 67.441406 15.390625 L 67.441406 11.160156 L 61.230469 11.160156 L 60.898438 13.140625 C 60.570312 14.941406 60.058594 15.390625 58.050781 15.390625 L 56.671875 15.390625 L 56.671875 21.480469 L 59.460938 21.480469 L 59.460938 24.839844 C 59.460938 29.308594 61.921875 31.5 67.050781 31.5 Z M 73.230469 31.5 L 81.210938 31.5 L 81.210938 22.921875 C 81.210938 21.839844 81.691406 21.238281 82.53125 21.238281 C 83.371094 21.238281 83.851562 21.839844 83.851562 22.921875 L 83.851562 31.5 L 91.410156 31.5 L 91.410156 22.921875 C 91.410156 21.839844 91.890625 21.238281 92.730469 21.238281 C 93.570312 21.238281 94.050781 21.839844 94.050781 22.921875 L 94.050781 31.5 L 102.03125 31.5 L 102.03125 21.660156 C 102.03125 17.578125 99.390625 14.96875 95.460938 14.96875 C 93.179688 14.96875 91.378906 15.75 90.03125 17.25 C 88.921875 15.75 87.121094 14.96875 84.929688 14.96875 C 82.738281 14.96875 80.941406 15.75 79.621094 17.191406 L 78.898438 15.390625 L 73.230469 15.390625 Z M 109.949219 31.890625 C 112.320312 31.890625 114.238281 31.171875 115.621094 29.699219 L 116.308594 31.5 L 122.011719 31.5 L 122.011719 22.679688 C 122.011719 17.609375 118.980469 14.96875 113.191406 14.96875 C 108.121094 14.96875 105.210938 17.039062 104.640625 21.058594 L 111.898438 21.058594 C 111.929688 20.371094 112.410156 19.949219 113.101562 19.949219 C 113.820312 19.949219 114.300781 20.398438 114.300781 21.089844 L 114.300781 22.050781 L 109.378906 22.050781 C 105.988281 22.050781 103.859375 23.96875 103.859375 26.941406 C 103.859375 30.03125 106.109375 31.890625 109.949219 31.890625 Z M 111.269531 26.191406 C 111.269531 25.53125 111.808594 25.140625 112.648438 25.140625 L 114.421875 25.140625 L 114.421875 25.53125 C 114.421875 26.609375 113.730469 27.238281 112.648438 27.238281 C 111.808594 27.238281 111.269531 26.851562 111.269531 26.191406 Z M 123.839844 31.5 L 139.019531 31.5 L 139.019531 25.769531 L 135.570312 25.769531 L 133.53125 25.890625 L 133.46875 25.648438 L 138.839844 20.160156 L 138.839844 15.390625 L 124.019531 15.390625 L 124.019531 21.148438 L 127.261719 21.148438 L 129.148438 21 L 129.238281 21.210938 L 123.839844 26.699219 Z M 149.519531 31.921875 C 154.320312 31.921875 157.800781 29.789062 159 26.039062 L 151.679688 26.039062 C 151.289062 26.519531 150.628906 26.761719 149.851562 26.761719 C 148.710938 26.761719 147.871094 26.21875 147.601562 24.929688 L 159.210938 24.929688 C 159.570312 18.871094 155.878906 14.96875 149.671875 14.96875 C 143.96875 14.96875 140.039062 18.421875 140.039062 23.460938 C 140.039062 28.5 143.878906 31.921875 149.519531 31.921875 Z M 147.628906 21.839844 C 147.898438 20.640625 148.710938 20.128906 149.789062 20.128906 C 150.929688 20.128906 151.621094 20.730469 151.859375 21.839844 Z M 147.628906 21.839844 "/>
</g>
</svg>
