<?xml version="1.0" encoding="UTF-8"?>
<svg xmlns="http://www.w3.org/2000/svg" xmlns:xlink="http://www.w3.org/1999/xlink" width="64px" height="64px" viewBox="0 0 64 64" version="1.1">
<g id="surface1">
<path style=" stroke:none;fill-rule:nonzero;fill:rgb(91.764706%,46.27451%,0.784314%);fill-opacity:1;" d="M 31.324219 -0.03125 C 31.894531 -0.03125 32.464844 -0.03125 33.035156 -0.0351562 C 41.035156 -0.0507812 50.484375 0.160156 56.875 5.625 C 56.992188 5.722656 56.992188 5.722656 57.113281 5.820312 C 61.851562 9.699219 63.128906 16.710938 63.707031 22.441406 C 63.992188 25.402344 64.039062 28.351562 64.03125 31.324219 C 64.03125 31.894531 64.03125 32.464844 64.035156 33.035156 C 64.050781 41.035156 63.839844 50.484375 58.375 56.875 C 58.3125 56.953125 58.246094 57.03125 58.183594 57.113281 C 54.300781 61.851562 47.289062 63.128906 41.558594 63.707031 C 38.597656 63.992188 35.648438 64.039062 32.675781 64.03125 C 32.105469 64.03125 31.535156 64.03125 30.964844 64.035156 C 22.964844 64.050781 13.515625 63.839844 7.125 58.375 C 7.046875 58.3125 6.96875 58.246094 6.886719 58.183594 C 2.148438 54.300781 0.871094 47.289062 0.292969 41.558594 C 0.0078125 38.597656 -0.0390625 35.648438 -0.03125 32.675781 C -0.03125 32.105469 -0.03125 31.535156 -0.0351562 30.964844 C -0.0507812 22.964844 0.160156 13.515625 5.625 7.125 C 5.6875 7.046875 5.753906 6.96875 5.820312 6.886719 C 9.699219 2.148438 16.710938 0.871094 22.441406 0.292969 C 25.402344 0.0078125 28.351562 -0.0390625 31.324219 -0.03125 Z M 31.324219 -0.03125 "/>
<path style=" stroke:none;fill-rule:nonzero;fill:rgb(99.607843%,99.607843%,99.607843%);fill-opacity:1;" d="M 45 14.875 C 47.308594 14.875 49.621094 14.875 52 14.875 C 52 25.890625 52 36.902344 52 48.25 C 43.503906 48.25 35.003906 48.25 26.25 48.25 C 26.746094 47.585938 27.246094 46.9375 27.773438 46.296875 C 28.230469 45.738281 28.6875 45.175781 29.128906 44.605469 C 29.238281 44.464844 29.351562 44.324219 29.464844 44.1875 C 29.785156 43.789062 30.074219 43.390625 30.34375 42.957031 C 30.796875 42.265625 31.269531 41.550781 32.070312 41.257812 C 32.980469 41.078125 33.898438 41.128906 34.820312 41.167969 C 35.113281 41.171875 35.410156 41.175781 35.703125 41.175781 C 36.472656 41.183594 37.242188 41.207031 38.011719 41.230469 C 38.9375 41.253906 39.867188 41.265625 40.792969 41.277344 C 42.195312 41.296875 43.597656 41.339844 45 41.375 C 45 39.269531 45 37.167969 45 35 C 41.039062 35 37.078125 35 33 35 C 33.5625 34.15625 33.5625 34.15625 33.84375 33.8125 C 33.933594 33.695312 33.933594 33.695312 34.027344 33.582031 C 34.089844 33.503906 34.152344 33.425781 34.21875 33.34375 C 34.285156 33.261719 34.351562 33.175781 34.421875 33.09375 C 34.613281 32.851562 34.808594 32.613281 35 32.375 C 35.71875 31.484375 36.421875 30.582031 37.125 29.675781 C 37.195312 29.585938 37.265625 29.492188 37.339844 29.398438 C 37.40625 29.3125 37.46875 29.230469 37.535156 29.148438 C 37.808594 28.800781 38.09375 28.464844 38.375 28.125 C 40.5625 28.125 42.746094 28.125 45 28.125 C 45 23.753906 45 19.378906 45 14.875 Z M 45 14.875 "/>
<path style=" stroke:none;fill-rule:nonzero;fill:rgb(99.607843%,99.607843%,99.607843%);fill-opacity:1;" d="M 12 14.875 C 20.457031 14.875 28.914062 14.875 37.625 14.875 C 37.363281 15.3125 37.128906 15.667969 36.8125 16.054688 C 36.402344 16.558594 36 17.066406 35.601562 17.578125 C 35.023438 18.316406 34.4375 19.042969 33.847656 19.769531 C 33.78125 19.84375 33.71875 19.921875 33.65625 20 C 33.589844 20.074219 33.527344 20.148438 33.460938 20.226562 C 33.238281 20.496094 33.238281 20.496094 33.097656 20.816406 C 32.855469 21.246094 32.660156 21.46875 32.25 21.75 C 31.285156 21.992188 30.242188 21.894531 29.253906 21.871094 C 28.957031 21.871094 28.664062 21.867188 28.367188 21.867188 C 27.589844 21.863281 26.816406 21.851562 26.039062 21.835938 C 25.105469 21.820312 24.175781 21.816406 23.242188 21.808594 C 21.828125 21.796875 20.414062 21.773438 19 21.75 C 19 23.855469 19 25.957031 19 28.125 C 22.917969 28.125 26.835938 28.125 30.875 28.125 C 30.640625 28.59375 30.390625 28.949219 30.070312 29.359375 C 29.988281 29.464844 29.988281 29.464844 29.902344 29.574219 C 29.726562 29.800781 29.550781 30.023438 29.375 30.25 C 29.265625 30.390625 29.152344 30.535156 29.042969 30.675781 C 28.355469 31.554688 27.65625 32.425781 26.949219 33.289062 C 26.492188 33.851562 26.058594 34.417969 25.625 35 C 23.4375 35 21.253906 35 19 35 C 19 39.371094 19 43.746094 19 48.25 C 16.691406 48.25 14.378906 48.25 12 48.25 C 12 37.234375 12 26.222656 12 14.875 Z M 12 14.875 "/>
</g>
</svg>
